# xmcd
#
# Track frame offsets: 
#        150
#        66695
#        128843
#        174184
#        197644
#        219367
#        251169
#        299316
#
# Disc length: 4440 seconds
#
# Revision: 2
# Processed by: cddbd v1.5.2PL0 Copyright (c) Steve Scherf et al.
# Submitted via: ExactAudioCopy v1.0b3
#
DISCID=7c115608
DTITLE=Emmanuel Pahud (flute), Tonhalle Orchester Zürich and David Zinma
DTITLE=n - Khachaturian‧Ibert‧Flötenkonzert
DYEAR=2003
DGENRE=Classical
TTITLE0=Khachaturian‧Flötenkonzert：I. Allegro con fermezza
TTITLE1=Khachaturian‧Flötenkonzert：II. Andante sostenuto
TTITLE2=Khachaturian‧Flötenkonzert：III. Allegro vivace
TTITLE3=Ibert‧4 Pièce pour flûte seule
TTITLE4=Ibert‧Flötenkonzert：I. Allegro
TTITLE5=Ibert‧Flötenkonzert：II. Andante
TTITLE6=Ibert‧Flötenkonzert：III. Allegro scherzando
TTITLE7=Data Track
EXTD=
EXTT0=
EXTT1=
EXTT2=
EXTT3=
EXTT4=
EXTT5=
EXTT6=
EXTT7=
PLAYORDER=
